<?xml version="1.0" encoding="UTF-8"?>
<svg id="Camada_2" data-name="Camada 2" xmlns="http://www.w3.org/2000/svg" viewBox="0 0 385.06 216.93">
  <defs>
    <style>
      .cls-1 {
        letter-spacing: -.02em;
      }

      .cls-2, .cls-3 {
        fill: #fff;
      }

      .cls-4 {
        fill: none;
      }

      .cls-5 {
        letter-spacing: -.02em;
      }

      .cls-6 {
        fill: #0644d8;
      }

      .cls-3 {
        font-family: Dosis-Regular, Dosis;
        font-size: 21.11px;
        font-variation-settings: 'wght' 400;
      }

      .cls-7 {
        letter-spacing: 0em;
      }

      .cls-8 {
        fill: #ac00ff;
      }
    </style>
  </defs>
  <g id="Camada_1-2" data-name="Camada 1">
    <path class="cls-2" d="M114.59,121.96h-9.75V34.9h9.75v9.93c1.97-3.4,4.6-6.16,7.89-8.27,3.29-2.11,7.2-3.16,11.72-3.16,4.22,0,8.17.79,11.87,2.38,3.69,1.59,6.94,3.78,9.72,6.59,2.79,2.81,4.97,6.05,6.56,9.72,1.59,3.68,2.38,7.62,2.38,11.84s-.79,8.18-2.38,11.9c-1.59,3.72-3.77,6.98-6.56,9.78-2.79,2.81-6.03,5-9.72,6.59-3.69,1.59-7.65,2.38-11.87,2.38-4.53,0-8.44-1.06-11.72-3.16-3.29-2.11-5.92-4.87-7.89-8.27v38.83ZM134.09,42.85c-3.75,0-7.04.95-9.87,2.84-2.82,1.9-5,4.43-6.53,7.6s-2.29,6.71-2.29,10.62.77,7.41,2.29,10.62c1.53,3.21,3.69,5.77,6.5,7.66,2.81,1.9,6.1,2.84,9.9,2.84s7.2-.94,10.33-2.81c3.14-1.88,5.65-4.41,7.55-7.6s2.84-6.76,2.84-10.71-.93-7.4-2.79-10.59c-1.86-3.19-4.35-5.74-7.49-7.63-3.13-1.89-6.62-2.84-10.45-2.84Z"/>
    <path class="cls-2" d="M284.7,56.83v36.1h-9.75v-33.95c0-2.94-.72-5.61-2.15-8.01-1.43-2.4-3.35-4.31-5.75-5.72-2.4-1.41-5.07-2.12-8.01-2.12s-5.56.71-7.98,2.12c-2.42,1.41-4.34,3.32-5.78,5.72-1.43,2.4-2.15,5.07-2.15,8.01v33.95h-9.75v-58.04h9.75v7.26c2.05-2.71,4.64-4.87,7.78-6.47,3.13-1.61,6.54-2.41,10.21-2.41,4.33,0,8.29,1.06,11.87,3.16,3.58,2.11,6.42,4.94,8.53,8.5,2.11,3.56,3.16,7.53,3.16,11.9Z"/>
    <path class="cls-2" d="M323.94,44.65h-13.18l-.06,48.29h-9.75l.06-48.29h-9.98v-9.75h9.98l-.06-18.23h9.75l.06,18.23h13.18v9.75Z"/>
    <path class="cls-2" d="M355.92,94.44c-5.34,0-10.21-1.37-14.6-4.12-4.39-2.75-7.89-6.43-10.51-11.06-2.61-4.62-3.92-9.74-3.92-15.35,0-4.26.75-8.23,2.26-11.93,1.51-3.69,3.59-6.94,6.24-9.75,2.65-2.81,5.74-5,9.26-6.59,3.52-1.59,7.27-2.38,11.26-2.38,4.37,0,8.39.88,12.04,2.64,3.66,1.76,6.79,4.21,9.4,7.34,2.61,3.13,4.56,6.77,5.86,10.91,1.3,4.14,1.77,8.57,1.42,13.29h-47.36c.46,3.29,1.55,6.22,3.25,8.79,1.7,2.57,3.88,4.61,6.53,6.12,2.65,1.51,5.6,2.28,8.85,2.32,3.48,0,6.64-.9,9.46-2.7,2.83-1.8,5.11-4.27,6.85-7.4l9.92,2.32c-2.32,5.15-5.82,9.35-10.5,12.62-4.68,3.27-9.93,4.9-15.73,4.9ZM337,59.79h37.84c-.31-3.25-1.36-6.22-3.14-8.91-1.78-2.69-4.04-4.85-6.79-6.47-2.75-1.62-5.75-2.44-9-2.44s-6.23.79-8.94,2.38c-2.71,1.59-4.94,3.72-6.7,6.41-1.76,2.69-2.85,5.7-3.28,9.03Z"/>
    <path class="cls-2" d="M151.56,100.85h9.75v87.06h-9.75v-9.87c-1.97,3.41-4.62,6.15-7.95,8.24-3.33,2.09-7.24,3.13-11.73,3.13-4.22,0-8.16-.79-11.84-2.38s-6.91-3.78-9.72-6.59c-2.81-2.8-5-6.05-6.59-9.72-1.59-3.68-2.38-7.62-2.38-11.84s.79-8.17,2.38-11.87c1.59-3.69,3.78-6.94,6.59-9.75,2.81-2.81,6.04-5,9.72-6.59,3.68-1.59,7.62-2.38,11.84-2.38,4.49,0,8.4,1.04,11.73,3.14,3.33,2.09,5.98,4.84,7.95,8.24v-38.83ZM132,179.96c3.83,0,7.15-.94,9.96-2.81,2.81-1.88,4.97-4.42,6.5-7.63,1.53-3.21,2.29-6.75,2.29-10.62s-.78-7.52-2.32-10.71c-1.55-3.19-3.73-5.73-6.53-7.6-2.81-1.88-6.1-2.81-9.9-2.81s-7.3.95-10.42,2.84c-3.11,1.9-5.6,4.44-7.46,7.63-1.86,3.19-2.79,6.74-2.79,10.65s.95,7.46,2.84,10.65c1.9,3.19,4.41,5.73,7.55,7.6,3.13,1.88,6.56,2.81,10.27,2.81Z"/>
    <path class="cls-2" d="M177.32,120.41c-1.55,0-2.84-.5-3.89-1.51-1.05-1-1.57-2.26-1.57-3.77s.52-2.77,1.57-3.77c1.04-1.01,2.32-1.51,3.83-1.51s2.79.5,3.83,1.51c1.05,1.01,1.57,2.26,1.57,3.77s-.52,2.77-1.54,3.77c-1.03,1.01-2.29,1.51-3.8,1.51ZM172.33,129.87h9.75v58.04h-9.75v-58.04Z"/>
    <path class="cls-2" d="M237.69,129.87h9.75v59.9c0,3.83-.82,7.4-2.47,10.71-1.65,3.31-3.86,6.19-6.65,8.65-2.79,2.46-5.96,4.37-9.52,5.75-3.56,1.37-7.28,2.06-11.15,2.06s-7.91-.9-11.67-2.7c-3.75-1.8-7.03-4.2-9.84-7.2-2.81-3-4.83-6.36-6.06-10.07l8.94-4.06c.73,2.67,2.06,5.08,3.98,7.23s4.16,3.85,6.73,5.11c2.57,1.26,5.21,1.89,7.92,1.89,2.56,0,5.02-.45,7.4-1.34,2.38-.89,4.53-2.12,6.44-3.69,1.92-1.57,3.42-3.4,4.53-5.51,1.1-2.11,1.65-4.38,1.65-6.82v-11.55c-1.97,3.33-4.58,6.03-7.81,8.1-3.23,2.07-6.99,3.1-11.29,3.1s-7.95-.79-11.55-2.38c-3.6-1.59-6.75-3.78-9.46-6.59-2.71-2.8-4.84-6.05-6.38-9.72-1.55-3.68-2.32-7.62-2.32-11.84s.78-8.17,2.32-11.87c1.55-3.69,3.67-6.94,6.38-9.75,2.71-2.81,5.86-5,9.46-6.59,3.6-1.59,7.45-2.38,11.55-2.38s8.06,1.03,11.29,3.08c3.23,2.05,5.84,4.76,7.81,8.13v-9.63ZM218.65,179.96c3.75,0,7.01-.97,9.78-2.9,2.77-1.93,4.91-4.51,6.42-7.72,1.51-3.21,2.26-6.69,2.26-10.45s-.77-7.4-2.29-10.59c-1.53-3.19-3.68-5.75-6.44-7.66-2.77-1.92-6.01-2.87-9.72-2.87s-6.96.95-9.98,2.84c-3.02,1.9-5.41,4.44-7.17,7.63-1.76,3.19-2.64,6.74-2.64,10.65s.9,7.46,2.7,10.65c1.8,3.19,4.2,5.73,7.2,7.6,3,1.88,6.3,2.81,9.9,2.81Z"/>
    <path class="cls-2" d="M262.71,120.41c-1.55,0-2.84-.5-3.89-1.51-1.04-1-1.57-2.26-1.57-3.77s.52-2.77,1.57-3.77c1.05-1.01,2.32-1.51,3.83-1.51s2.79.5,3.83,1.51c1.04,1.01,1.57,2.26,1.57,3.77s-.51,2.77-1.54,3.77c-1.03,1.01-2.29,1.51-3.8,1.51ZM257.71,129.87h9.75v58.04h-9.75v-58.04Z"/>
    <path class="cls-2" d="M308.55,139.62h-13.18l-.06,48.29h-9.75l.06-48.29h-9.98v-9.75h9.98l-.06-18.23h9.75l.06,18.23h13.18v9.75Z"/>
    <path class="cls-2" d="M375.31,187.91v-87.06h9.75v87.06h-9.75Z"/>
    <path class="cls-4" d="M213.8,53.47c-1.72-3.17-4.03-5.71-6.94-7.6-2.9-1.9-6.15-2.84-9.75-2.84s-6.9.96-9.81,2.87c-2.9,1.92-5.2,4.46-6.91,7.63-1.7,3.17-2.55,6.64-2.55,10.39,0,1.88.21,3.68.63,5.39h37.27c.43-1.73.64-3.52.64-5.39,0-3.79-.86-7.27-2.58-10.45Z"/>
    <path class="cls-6" d="M179.79,63.51c0-3.75.85-7.22,2.55-10.39,1.7-3.17,4.01-5.72,6.91-7.63,2.9-1.92,6.17-2.87,9.81-2.87s6.85.95,9.75,2.84c2.9,1.9,5.21,4.43,6.94,7.6,1.72,3.17,2.58,6.66,2.58,10.45,0,1.87-.22,3.67-.64,5.39h9.93c.29-1.75.46-3.54.46-5.39,0-5.65-1.3-10.8-3.92-15.44-2.61-4.64-6.11-8.34-10.51-11.09-4.39-2.75-9.26-4.12-14.6-4.12-3.99,0-7.74.79-11.26,2.38-3.52,1.59-6.61,3.78-9.26,6.59-2.65,2.81-4.73,6.06-6.24,9.75-1.51,3.7-2.26,7.67-2.26,11.93,0,1.86.2,3.64.48,5.39h9.9c-.41-1.71-.63-3.51-.63-5.39Z"/>
    <rect class="cls-6" x="71.29" y="30.17" width="8.71" height="162.32"/>
    <rect class="cls-6" x="36.76" y="74.6" width="8.71" height="74.8" transform="translate(153.12 70.88) rotate(90)"/>
    <rect class="cls-6" x="45.57" y="43.47" width="8.71" height="74.8" transform="translate(140.12 110.82) rotate(140.06)"/>
    <rect class="cls-6" x="44.64" y="104.13" width="8.71" height="74.8" transform="translate(114.43 6.81) rotate(45)"/>
    <circle class="cls-8" cx="26.89" cy="53.36" r="5.85"/>
    <circle class="cls-8" cx="5.85" cy="112" r="5.85"/>
    <circle class="cls-8" cx="22.54" cy="167.99" r="5.85"/>
    <circle class="cls-8" cx="75.65" cy="189.89" r="5.85"/>
    <circle class="cls-8" cx="75.65" cy="32.81" r="5.85"/>
    <circle class="cls-8" cx="339.81" cy="157.72" r="4.99"/>
    <text class="cls-3" transform="translate(103.99 18.27)"><tspan class="cls-7" x="0" y="0">p</tspan><tspan class="cls-5" x="10.28" y="0">r</tspan><tspan class="cls-7" x="16.86" y="0">og</tspan><tspan class="cls-1" x="36.47" y="0">r</tspan><tspan class="cls-7" x="43.03" y="0">ama</tspan></text>
    <path class="cls-8" d="M320.54,157.01c0-3.75.85-7.22,2.55-10.39,1.7-3.17,4.01-5.72,6.91-7.63,2.9-1.92,6.17-2.87,9.81-2.87s6.85.95,9.75,2.84c2.9,1.9,5.21,4.43,6.94,7.6,1.72,3.17,2.58,6.66,2.58,10.45,0,1.87-.22,3.67-.64,5.39h9.93c.29-1.75.46-3.54.46-5.39,0-5.65-1.3-10.8-3.92-15.44-2.61-4.64-6.11-8.34-10.51-11.09-4.39-2.75-9.26-4.12-14.6-4.12-3.99,0-7.74.79-11.26,2.38-3.52,1.59-6.61,3.78-9.26,6.59-2.65,2.81-4.73,6.06-6.24,9.75-1.51,3.7-2.26,7.67-2.26,11.93,0,1.86.2,3.64.48,5.39h9.9c-.41-1.71-.63-3.51-.63-5.39Z"/>
  </g>
</svg>