<?xml version="1.0" encoding="UTF-8"?>
<svg id="Camada_2" data-name="Camada 2" xmlns="http://www.w3.org/2000/svg" viewBox="0 0 1921.1 1083.09">
  <defs>
    <style>
      .cls-1 {
        fill: #15172a;
      }

      .cls-2 {
        fill: none;
        stroke: #fff;
        stroke-miterlimit: 10;
        stroke-width: 2px;
      }

      .cls-3 {
        opacity: .1;
      }
    </style>
  </defs>
  <g id="Camada_1-2" data-name="Camada 1">
    <rect class="cls-1" x="1" y="1" width="1920" height="1080"/>
    <g class="cls-3">
      <line class="cls-2" x1="1" y1="1" x2="1921" y2="1"/>
      <line class="cls-2" x1="1" y1="50.64" x2="1921" y2="50.64"/>
      <line class="cls-2" x1="1" y1="100.28" x2="1921" y2="100.28"/>
      <line class="cls-2" x1="1" y1="149.92" x2="1921" y2="149.92"/>
      <line class="cls-2" x1="1" y1="199.56" x2="1921" y2="199.56"/>
      <line class="cls-2" x1="1" y1="249.2" x2="1921" y2="249.2"/>
      <line class="cls-2" x1="1" y1="298.84" x2="1921" y2="298.84"/>
      <line class="cls-2" x1="1" y1="348.48" x2="1921" y2="348.48"/>
      <line class="cls-2" x1="1" y1="398.12" x2="1921" y2="398.12"/>
      <line class="cls-2" x1="1" y1="447.76" x2="1921" y2="447.76"/>
      <line class="cls-2" x1="1" y1="497.4" x2="1921" y2="497.4"/>
      <line class="cls-2" x1="1" y1="547.04" x2="1921" y2="547.04"/>
      <line class="cls-2" x1="1" y1="596.68" x2="1921" y2="596.68"/>
      <line class="cls-2" x1="1" y1="646.32" x2="1921" y2="646.32"/>
      <line class="cls-2" x1="1" y1="695.96" x2="1921" y2="695.96"/>
      <line class="cls-2" x1="1" y1="745.6" x2="1921" y2="745.6"/>
      <line class="cls-2" x1="1" y1="795.25" x2="1921" y2="795.25"/>
      <line class="cls-2" x1="1" y1="844.89" x2="1921" y2="844.89"/>
      <line class="cls-2" x1="1" y1="894.53" x2="1921" y2="894.53"/>
      <line class="cls-2" x1="1" y1="944.17" x2="1921" y2="944.17"/>
      <line class="cls-2" x1="1" y1="993.81" x2="1921" y2="993.81"/>
      <line class="cls-2" x1="1" y1="1043.45" x2="1921" y2="1043.45"/>
      <line class="cls-2" x1="1" y1="1082.09" x2="1921" y2="1082.09"/>
      <line class="cls-2" x1="1" y1="1" x2="1" y2="1081"/>
      <line class="cls-2" x1="49.28" y1="1" x2="49.28" y2="1081"/>
      <line class="cls-2" x1="97.56" y1="1" x2="97.56" y2="1081"/>
      <line class="cls-2" x1="145.83" y1="1" x2="145.83" y2="1081"/>
      <line class="cls-2" x1="194.11" y1="1" x2="194.11" y2="1081"/>
      <line class="cls-2" x1="242.39" y1="1" x2="242.39" y2="1081"/>
      <line class="cls-2" x1="290.67" y1="1" x2="290.67" y2="1081"/>
      <line class="cls-2" x1="338.94" y1="1" x2="338.94" y2="1081"/>
      <line class="cls-2" x1="387.22" y1="1" x2="387.22" y2="1081"/>
      <line class="cls-2" x1="435.5" y1="1" x2="435.5" y2="1081"/>
      <line class="cls-2" x1="483.78" y1="1" x2="483.78" y2="1081"/>
      <line class="cls-2" x1="532.05" y1="1" x2="532.05" y2="1081"/>
      <line class="cls-2" x1="580.33" y1="1" x2="580.33" y2="1081"/>
      <line class="cls-2" x1="628.61" y1="1" x2="628.61" y2="1081"/>
      <line class="cls-2" x1="676.89" y1="1" x2="676.89" y2="1081"/>
      <line class="cls-2" x1="725.16" y1="1" x2="725.16" y2="1081"/>
      <line class="cls-2" x1="773.44" y1="1" x2="773.44" y2="1081"/>
      <line class="cls-2" x1="821.72" y1="1" x2="821.72" y2="1081"/>
      <line class="cls-2" x1="870" y1="1" x2="870" y2="1081"/>
      <line class="cls-2" x1="918.27" y1="1" x2="918.27" y2="1081"/>
      <line class="cls-2" x1="966.55" y1="1" x2="966.55" y2="1081"/>
      <line class="cls-2" x1="1014.83" y1="1" x2="1014.83" y2="1081"/>
      <line class="cls-2" x1="1063.11" y1="1" x2="1063.11" y2="1081"/>
      <line class="cls-2" x1="1111.38" y1="1" x2="1111.38" y2="1081"/>
      <line class="cls-2" x1="1159.66" y1="1" x2="1159.66" y2="1081"/>
      <line class="cls-2" x1="1207.94" y1="1" x2="1207.94" y2="1081"/>
      <line class="cls-2" x1="1256.22" y1="1" x2="1256.22" y2="1081"/>
      <line class="cls-2" x1="1304.49" y1="1" x2="1304.49" y2="1081"/>
      <line class="cls-2" x1="1352.77" y1="1" x2="1352.77" y2="1081"/>
      <line class="cls-2" x1="1401.05" y1="1" x2="1401.05" y2="1081"/>
      <line class="cls-2" x1="1449.33" y1="1" x2="1449.33" y2="1081"/>
      <line class="cls-2" x1="1497.6" y1="1" x2="1497.6" y2="1081"/>
      <line class="cls-2" x1="1545.88" y1="1" x2="1545.88" y2="1081"/>
      <line class="cls-2" x1="1594.16" y1="1" x2="1594.16" y2="1081"/>
      <line class="cls-2" x1="1642.44" y1="1" x2="1642.44" y2="1081"/>
      <line class="cls-2" x1="1690.71" y1="1" x2="1690.71" y2="1081"/>
      <line class="cls-2" x1="1738.99" y1="1" x2="1738.99" y2="1081"/>
      <line class="cls-2" x1="1787.27" y1="1" x2="1787.27" y2="1081"/>
      <line class="cls-2" x1="1835.55" y1="1" x2="1835.55" y2="1081"/>
      <line class="cls-2" x1="1883.82" y1="1" x2="1883.82" y2="1081"/>
      <line class="cls-2" x1="1920.1" y1="1" x2="1920.1" y2="1081"/>
    </g>
  </g>
</svg>