<?xml version="1.0" encoding="UTF-8"?>
<svg id="Camada_2" data-name="Camada 2" xmlns="http://www.w3.org/2000/svg" viewBox="0 0 178.2 199.96">
  <defs>
    <style>
      .cls-1 {
        fill: #0644c2;
      }

      .cls-2 {
        fill: #ac00ff;
      }
    </style>
  </defs>
  <g id="Camada_1-2" data-name="Camada 1">
    <rect class="cls-1" x="83.97" y="3.79" width="10.26" height="191.19"/>
    <rect class="cls-1" x="43.3" y="56.12" width="10.26" height="88.1" transform="translate(148.6 51.74) rotate(90)"/>
    <rect class="cls-1" x="53.67" y="19.44" width="10.26" height="88.1" transform="translate(144.65 74.43) rotate(140.06)"/>
    <rect class="cls-1" x="52.57" y="90.89" width="10.26" height="88.1" transform="translate(112.32 -1.28) rotate(45)"/>
    <circle class="cls-2" cx="31.67" cy="31.09" r="6.89"/>
    <circle class="cls-2" cx="6.89" cy="100.17" r="6.89"/>
    <circle class="cls-2" cx="26.54" cy="166.11" r="6.89"/>
    <circle class="cls-2" cx="89.1" cy="191.9" r="6.89"/>
    <circle class="cls-2" cx="89.1" cy="6.89" r="6.89"/>
    <rect class="cls-1" x="83.97" y="4.99" width="10.26" height="191.19" transform="translate(178.2 201.17) rotate(180)"/>
    <rect class="cls-1" x="124.64" y="55.74" width="10.26" height="88.1" transform="translate(29.98 229.57) rotate(-90)"/>
    <rect class="cls-1" x="114.27" y="92.42" width="10.26" height="88.1" transform="translate(-59.76 108.49) rotate(-39.94)"/>
    <rect class="cls-1" x="115.37" y="20.97" width="10.26" height="88.1" transform="translate(159.73 196.2) rotate(-135)"/>
    <circle class="cls-2" cx="146.53" cy="168.87" r="6.89"/>
    <circle class="cls-2" cx="171.31" cy="99.8" r="6.89"/>
    <circle class="cls-2" cx="151.66" cy="33.86" r="6.89"/>
    <circle class="cls-2" cx="89.1" cy="8.06" r="6.89"/>
    <circle class="cls-2" cx="89.1" cy="193.07" r="6.89"/>
  </g>
</svg>