<?xml version="1.0" encoding="UTF-8"?>
<svg id="Camada_2" data-name="Camada 2" xmlns="http://www.w3.org/2000/svg" viewBox="0 0 145.06 99.31">
  <defs>
    <style>
      .cls-1 {
        fill: #fff;
      }

      .cls-2 {
        fill: none;
      }

      .cls-3 {
        fill: #0644d8;
      }

      .cls-4 {
        opacity: 0;
      }

      .cls-5 {
        fill: #ac00ff;
      }
    </style>
  </defs>
  <g id="Camada_1-2" data-name="Camada 1">
    <rect class="cls-4" width="145.06" height="99.31"/>
    <path class="cls-1" d="M48,53.34h-2.97v-26.52h2.97v3.02c.6-1.04,1.4-1.88,2.41-2.52,1-.64,2.19-.96,3.57-.96,1.28,0,2.49.24,3.62.72,1.13.48,2.11,1.15,2.96,2.01.85.85,1.51,1.84,2,2.96s.73,2.32.73,3.61-.24,2.49-.73,3.62c-.48,1.13-1.15,2.13-2,2.98-.85.86-1.84,1.52-2.96,2.01-1.13.48-2.33.73-3.62.73-1.38,0-2.57-.32-3.57-.96-1-.64-1.8-1.48-2.41-2.52v11.83ZM53.94,29.24c-1.14,0-2.15.29-3.01.87-.86.58-1.52,1.35-1.99,2.32s-.7,2.05-.7,3.24.23,2.26.7,3.24c.47.98,1.13,1.76,1.98,2.33s1.86.87,3.01.87,2.19-.29,3.15-.86c.96-.57,1.72-1.34,2.3-2.32s.87-2.06.87-3.26-.28-2.25-.85-3.23-1.33-1.75-2.28-2.33c-.95-.58-2.02-.87-3.18-.87Z"/>
    <path class="cls-1" d="M99.83,33.5v11h-2.97v-10.34c0-.9-.22-1.71-.65-2.44-.44-.73-1.02-1.31-1.75-1.74-.73-.43-1.54-.65-2.44-.65s-1.69.22-2.43.65c-.74.43-1.32,1.01-1.76,1.74-.44.73-.65,1.54-.65,2.44v10.34h-2.97v-17.68h2.97v2.21c.62-.82,1.41-1.48,2.37-1.97.95-.49,1.99-.73,3.11-.73,1.32,0,2.53.32,3.62.96s1.96,1.51,2.6,2.59c.64,1.08.96,2.29.96,3.62Z"/>
    <path class="cls-1" d="M111.78,29.79h-4.01l-.02,14.71h-2.97l.02-14.71h-3.04v-2.97h3.04l-.02-5.55h2.97l.02,5.55h4.01v2.97Z"/>
    <path class="cls-1" d="M121.52,44.96c-1.63,0-3.11-.42-4.45-1.26-1.34-.84-2.41-1.96-3.2-3.37-.8-1.41-1.19-2.97-1.19-4.68,0-1.3.23-2.51.69-3.63.46-1.13,1.09-2.12,1.9-2.97.81-.85,1.75-1.52,2.82-2.01,1.07-.48,2.22-.73,3.43-.73,1.33,0,2.56.27,3.67.8,1.11.54,2.07,1.28,2.87,2.24.8.95,1.39,2.06,1.79,3.32.39,1.26.54,2.61.43,4.05h-14.43c.14,1,.47,1.9.99,2.68.52.78,1.18,1.41,1.99,1.87.81.46,1.71.7,2.7.71,1.06,0,2.02-.27,2.88-.82.86-.55,1.56-1.3,2.09-2.25l3.02.71c-.71,1.57-1.77,2.85-3.2,3.85-1.43,1-3.02,1.49-4.79,1.49ZM115.76,34.4h11.53c-.09-.99-.41-1.89-.96-2.71-.54-.82-1.23-1.48-2.07-1.97-.84-.49-1.75-.74-2.74-.74s-1.9.24-2.72.72c-.82.48-1.51,1.13-2.04,1.95s-.87,1.74-1,2.75Z"/>
    <path class="cls-1" d="M59.26,46.91h2.97v26.52h-2.97v-3.01c-.6,1.04-1.41,1.87-2.42,2.51-1.01.64-2.2.95-3.57.95-1.28,0-2.49-.24-3.61-.72s-2.11-1.15-2.96-2.01c-.85-.85-1.52-1.84-2.01-2.96-.48-1.12-.73-2.32-.73-3.61s.24-2.49.73-3.62c.48-1.13,1.15-2.12,2.01-2.97s1.84-1.52,2.96-2.01,2.32-.73,3.61-.73c1.37,0,2.56.32,3.57.96,1.01.64,1.82,1.47,2.42,2.51v-11.83ZM53.3,71.02c1.17,0,2.18-.29,3.03-.86.85-.57,1.51-1.35,1.98-2.33.47-.98.7-2.06.7-3.24s-.24-2.29-.71-3.26c-.47-.97-1.14-1.74-1.99-2.32s-1.86-.86-3.01-.86-2.23.29-3.17.87c-.95.58-1.71,1.35-2.27,2.33-.57.97-.85,2.05-.85,3.24s.29,2.27.87,3.24,1.34,1.74,2.3,2.32c.95.57,2,.86,3.13.86Z"/>
    <path class="cls-1" d="M67.11,52.87c-.47,0-.87-.15-1.18-.46-.32-.31-.48-.69-.48-1.15s.16-.84.48-1.15c.32-.31.71-.46,1.17-.46s.85.15,1.17.46c.32.31.48.69.48,1.15s-.16.84-.47,1.15c-.31.31-.7.46-1.16.46ZM65.59,55.75h2.97v17.68h-2.97v-17.68Z"/>
    <path class="cls-1" d="M85.5,55.75h2.97v18.25c0,1.17-.25,2.25-.75,3.26-.5,1.01-1.18,1.89-2.03,2.63-.85.75-1.82,1.33-2.9,1.75-1.08.42-2.22.63-3.4.63s-2.41-.27-3.55-.82-2.14-1.28-3-2.19c-.85-.91-1.47-1.94-1.85-3.07l2.72-1.24c.22.81.63,1.55,1.21,2.2s1.27,1.17,2.05,1.56,1.59.57,2.41.57c.78,0,1.53-.14,2.26-.41.72-.27,1.38-.65,1.96-1.12.58-.48,1.04-1.04,1.38-1.68.34-.64.5-1.34.5-2.08v-3.52c-.6,1.01-1.39,1.84-2.38,2.47-.98.63-2.13.95-3.44.95s-2.42-.24-3.52-.72c-1.1-.48-2.06-1.15-2.88-2.01-.83-.85-1.47-1.84-1.95-2.96-.47-1.12-.71-2.32-.71-3.61s.24-2.49.71-3.62c.47-1.13,1.12-2.12,1.95-2.97.82-.85,1.79-1.52,2.88-2.01,1.1-.48,2.27-.73,3.52-.73s2.45.31,3.44.94c.98.63,1.78,1.45,2.38,2.48v-2.94ZM79.7,71.02c1.14,0,2.14-.29,2.98-.88s1.49-1.37,1.95-2.35c.46-.98.69-2.04.69-3.18s-.23-2.25-.7-3.23-1.12-1.75-1.96-2.33c-.84-.58-1.83-.88-2.96-.88s-2.12.29-3.04.87c-.92.58-1.65,1.35-2.18,2.33-.54.97-.8,2.05-.8,3.24s.27,2.27.82,3.24c.55.97,1.28,1.74,2.19,2.32.91.57,1.92.86,3.01.86Z"/>
    <path class="cls-1" d="M93.12,52.87c-.47,0-.87-.15-1.19-.46-.32-.31-.48-.69-.48-1.15s.16-.84.48-1.15c.32-.31.71-.46,1.17-.46s.85.15,1.17.46c.32.31.48.69.48,1.15s-.16.84-.47,1.15c-.31.31-.7.46-1.16.46ZM91.6,55.75h2.97v17.68h-2.97v-17.68Z"/>
    <path class="cls-1" d="M107.09,58.73h-4.01l-.02,14.71h-2.97l.02-14.71h-3.04v-2.97h3.04l-.02-5.55h2.97l.02,5.55h4.01v2.97Z"/>
    <path class="cls-1" d="M127.43,73.44v-26.52h2.97v26.52h-2.97Z"/>
    <path class="cls-2" d="M78.22,32.48c-.52-.97-1.23-1.74-2.11-2.32-.88-.58-1.87-.87-2.97-.87s-2.1.29-2.99.88c-.88.58-1.59,1.36-2.1,2.33s-.78,2.02-.78,3.17c0,.57.07,1.12.19,1.64h11.36c.13-.53.2-1.07.2-1.64,0-1.16-.26-2.22-.79-3.18Z"/>
    <path class="cls-3" d="M67.86,35.54c0-1.14.26-2.2.78-3.17s1.22-1.74,2.1-2.33c.88-.58,1.88-.88,2.99-.88s2.09.29,2.97.87c.88.58,1.59,1.35,2.11,2.32s.79,2.03.79,3.18c0,.57-.07,1.12-.2,1.64h3.02c.09-.53.14-1.08.14-1.64,0-1.72-.4-3.29-1.19-4.7-.8-1.41-1.86-2.54-3.2-3.38-1.34-.84-2.82-1.26-4.45-1.26-1.21,0-2.36.24-3.43.73-1.07.48-2.01,1.15-2.82,2.01-.81.85-1.44,1.85-1.9,2.97-.46,1.13-.69,2.34-.69,3.63,0,.57.06,1.11.15,1.64h3.01c-.13-.52-.19-1.07-.19-1.64Z"/>
    <rect class="cls-3" x="31.45" y="25.38" width="2.65" height="49.46"/>
    <rect class="cls-3" x="20.93" y="38.92" width="2.65" height="22.79" transform="translate(72.57 28.05) rotate(90)"/>
    <rect class="cls-3" x="23.62" y="29.43" width="2.65" height="22.79" transform="translate(70.28 56.11) rotate(140.06)"/>
    <rect class="cls-3" x="23.33" y="47.91" width="2.65" height="22.79" transform="translate(49.16 -.07) rotate(45)"/>
    <circle class="cls-5" cx="17.93" cy="32.44" r="1.78"/>
    <circle class="cls-5" cx="11.52" cy="50.31" r="1.78"/>
    <circle class="cls-5" cx="16.6" cy="67.37" r="1.78"/>
    <circle class="cls-5" cx="32.78" cy="74.04" r="1.78"/>
    <circle class="cls-5" cx="32.78" cy="26.18" r="1.78"/>
    <circle class="cls-5" cx="116.62" cy="64.24" r="1.52"/>
    <g>
      <path class="cls-1" d="M45.38,23.24c-.06,0-.1-.02-.15-.05-.04-.03-.06-.07-.06-.12v-4.21c0-.05.02-.09.06-.12.04-.03.09-.04.15-.04s.1.01.14.04c.04.03.06.07.06.12v.29c.07-.12.18-.24.33-.34.15-.1.32-.15.53-.15s.41.05.58.16.31.25.42.44c.1.18.16.38.16.61v.69c0,.21-.05.41-.16.6-.11.19-.24.34-.42.45-.17.11-.36.17-.57.17s-.37-.05-.53-.15-.27-.21-.34-.35v1.77s-.02.08-.06.12c-.04.03-.09.05-.15.05ZM46.38,21.41c.14,0,.27-.04.39-.12s.22-.18.29-.31.11-.26.11-.41v-.69c0-.14-.04-.27-.11-.4-.08-.12-.17-.23-.29-.31s-.25-.12-.4-.12c-.13,0-.25.03-.37.1s-.22.16-.29.28c-.08.12-.12.27-.12.44v.89c0,.06.03.15.1.25s.16.19.28.27.25.12.41.12Z"/>
      <path class="cls-1" d="M48.5,21.75c-.06,0-.1-.02-.14-.05-.04-.03-.06-.07-.06-.12v-2.71c0-.05.02-.09.06-.12.04-.03.09-.04.14-.04s.1.01.14.04c.04.03.06.07.06.12v.32c.05-.09.11-.17.19-.25.08-.08.18-.14.29-.19.11-.05.24-.07.38-.07h.23s.09.02.12.06c.03.04.05.08.05.14,0,.06-.02.1-.05.14s-.07.05-.12.05h-.23c-.14,0-.28.04-.41.12s-.24.18-.32.32c-.08.14-.12.3-.12.5v1.59s-.02.08-.06.12c-.04.04-.09.05-.15.05Z"/>
      <path class="cls-1" d="M51.41,21.8c-.22,0-.42-.06-.61-.17-.19-.11-.34-.26-.45-.45s-.17-.39-.17-.6v-.69c0-.21.05-.41.16-.6.11-.18.26-.33.44-.44s.39-.17.61-.17.42.05.61.16.33.25.45.44c.11.18.17.38.17.61v.69c0,.21-.06.41-.17.6-.11.19-.26.34-.45.45-.19.11-.39.17-.61.17ZM51.41,21.41c.15,0,.29-.04.41-.12.12-.08.22-.18.29-.31s.11-.26.11-.41v-.69c0-.14-.04-.27-.11-.4-.07-.12-.17-.23-.29-.31s-.26-.12-.41-.12-.29.04-.41.12-.22.18-.29.31c-.07.12-.11.26-.11.4v.69c0,.14.04.28.11.41.07.13.17.23.29.31s.26.12.41.12Z"/>
      <path class="cls-1" d="M54.42,23.24c-.25,0-.48-.04-.67-.11-.19-.07-.35-.17-.46-.3-.11-.13-.17-.28-.17-.45,0-.19.06-.34.17-.45s.24-.2.38-.25c-.1-.04-.19-.09-.25-.16s-.1-.16-.1-.29.03-.22.09-.29c.06-.07.14-.13.23-.18-.12-.09-.21-.21-.27-.35-.06-.14-.09-.29-.09-.46v-.24c0-.21.05-.39.14-.55.09-.16.22-.28.39-.37s.36-.13.58-.13c.15,0,.29.02.42.07.13.05.24.11.33.2.06-.13.14-.23.22-.3.08-.07.16-.1.23-.1.07,0,.12.02.15.05.03.04.05.07.05.11s-.01.07-.03.09c-.02.02-.05.04-.08.05-.05,0-.11.03-.18.07-.07.04-.13.11-.18.21.06.08.1.17.13.28s.04.21.04.33v.24c0,.2-.05.38-.14.55-.09.16-.23.29-.4.38-.17.09-.36.14-.58.14-.18,0-.35-.04-.5-.11-.05.03-.09.06-.13.09-.04.04-.06.09-.06.16,0,.09.05.16.15.21s.22.07.37.09c.15.02.31.04.48.05s.33.05.48.11c.15.05.28.13.37.24s.14.26.14.46-.05.37-.16.5c-.11.13-.26.24-.45.3-.19.07-.41.1-.65.1ZM54.41,22.93c.27,0,.48-.05.63-.16.15-.11.23-.25.23-.42,0-.14-.04-.24-.12-.31-.08-.07-.19-.12-.31-.15-.13-.03-.26-.05-.39-.06-.14-.01-.25-.03-.35-.04-.15.05-.28.12-.4.21-.12.09-.17.21-.17.37,0,.17.08.31.24.42.16.11.38.16.66.16ZM54.39,20.72c.21,0,.38-.07.51-.21.12-.14.19-.32.19-.54v-.24c0-.21-.06-.39-.18-.53s-.29-.21-.52-.21-.4.07-.52.21-.18.32-.18.53v.24c0,.21.06.39.19.54.12.15.3.22.52.22Z"/>
      <path class="cls-1" d="M56.48,21.75c-.06,0-.1-.02-.14-.05-.04-.03-.06-.07-.06-.12v-2.71c0-.05.02-.09.06-.12.04-.03.09-.04.14-.04s.1.01.14.04c.04.03.06.07.06.12v.32c.05-.09.11-.17.19-.25.08-.08.18-.14.29-.19.11-.05.24-.07.38-.07h.23s.09.02.12.06c.03.04.05.08.05.14,0,.06-.02.1-.05.14s-.07.05-.12.05h-.23c-.14,0-.28.04-.41.12s-.24.18-.32.32c-.08.14-.12.3-.12.5v1.59s-.02.08-.06.12c-.04.04-.09.05-.15.05Z"/>
      <path class="cls-1" d="M58.95,21.8c-.25,0-.45-.07-.62-.21-.17-.14-.25-.35-.25-.64,0-.24.06-.42.19-.54s.3-.21.53-.26c.23-.05.49-.07.78-.07h.33v-.15c0-.14-.02-.28-.07-.41-.05-.14-.13-.25-.24-.33s-.26-.13-.45-.13c-.14,0-.26.02-.35.04-.09.03-.16.06-.21.09-.05.03-.09.05-.13.05-.05,0-.09-.03-.13-.08-.03-.05-.05-.1-.05-.14,0-.06.04-.11.13-.16.09-.05.2-.09.34-.12s.27-.05.4-.05c.29,0,.52.06.69.18.17.12.29.27.37.46s.11.39.11.6v1.67s-.02.09-.05.12-.09.05-.15.05c-.05,0-.1-.02-.14-.05s-.06-.07-.06-.12v-.28c-.11.13-.24.24-.4.34-.16.1-.35.15-.57.15ZM59.06,21.44c.14,0,.28-.04.41-.11s.23-.16.32-.27c.08-.11.12-.21.12-.3v-.41h-.27c-.19,0-.38.01-.55.04-.17.02-.32.07-.42.15s-.16.2-.16.37c0,.18.05.32.16.41s.24.13.4.13Z"/>
      <path class="cls-1" d="M61.32,21.75c-.06,0-.1-.02-.14-.05-.04-.03-.06-.07-.06-.12v-2.71c0-.05.02-.09.06-.12.04-.03.09-.04.14-.04s.1.01.14.04c.04.03.06.07.06.12v.29c.07-.12.18-.24.33-.34.14-.1.32-.15.53-.15s.4.06.56.18c.16.12.28.27.35.46.11-.22.26-.38.43-.49.18-.1.36-.16.54-.16s.36.05.52.14c.17.09.3.23.4.41s.15.4.15.66v1.7s-.02.08-.06.12c-.04.04-.09.05-.15.05-.06,0-.1-.02-.15-.05-.04-.03-.06-.07-.06-.12v-1.7c0-.18-.04-.34-.11-.46-.07-.12-.17-.21-.28-.27-.11-.06-.23-.09-.34-.09-.12,0-.24.03-.36.1-.11.06-.21.16-.28.27-.08.12-.11.26-.11.42v1.74c0,.06-.02.1-.07.12-.04.03-.09.04-.14.04-.05,0-.09-.01-.14-.04-.04-.03-.07-.07-.07-.12v-1.74c0-.15-.03-.29-.1-.41-.07-.12-.16-.21-.27-.28-.11-.07-.23-.1-.36-.1-.12,0-.24.03-.36.1-.12.06-.21.16-.29.28-.07.12-.11.27-.11.45v1.7s-.02.08-.06.12c-.04.04-.09.05-.15.05Z"/>
      <path class="cls-1" d="M66.82,21.8c-.25,0-.45-.07-.62-.21-.17-.14-.25-.35-.25-.64,0-.24.06-.42.19-.54s.3-.21.53-.26c.23-.05.49-.07.78-.07h.33v-.15c0-.14-.02-.28-.07-.41-.05-.14-.13-.25-.24-.33s-.26-.13-.45-.13c-.14,0-.26.02-.35.04-.09.03-.16.06-.21.09-.05.03-.09.05-.13.05-.05,0-.09-.03-.13-.08-.03-.05-.05-.1-.05-.14,0-.06.04-.11.13-.16.09-.05.2-.09.34-.12s.27-.05.4-.05c.29,0,.52.06.69.18.17.12.29.27.37.46s.11.39.11.6v1.67s-.02.09-.05.12-.09.05-.15.05c-.05,0-.1-.02-.14-.05s-.06-.07-.06-.12v-.28c-.11.13-.24.24-.4.34-.16.1-.35.15-.57.15ZM66.92,21.44c.14,0,.28-.04.41-.11s.23-.16.32-.27c.08-.11.12-.21.12-.3v-.41h-.27c-.19,0-.38.01-.55.04-.17.02-.32.07-.42.15s-.16.2-.16.37c0,.18.05.32.16.41s.24.13.4.13Z"/>
    </g>
    <path class="cls-5" d="M110.75,64.02c0-1.14.26-2.2.78-3.17.52-.97,1.22-1.74,2.1-2.33.88-.58,1.88-.88,2.99-.88s2.09.29,2.97.87c.88.58,1.59,1.35,2.11,2.32.52.97.79,2.03.79,3.18,0,.57-.07,1.12-.2,1.64h3.02c.09-.53.14-1.08.14-1.64,0-1.72-.4-3.29-1.19-4.7-.8-1.41-1.86-2.54-3.2-3.38-1.34-.84-2.82-1.26-4.45-1.26-1.21,0-2.36.24-3.43.73-1.07.48-2.01,1.15-2.82,2.01-.81.85-1.44,1.85-1.9,2.97-.46,1.13-.69,2.34-.69,3.63,0,.57.06,1.11.15,1.64h3.01c-.13-.52-.19-1.07-.19-1.64Z"/>
  </g>
</svg>